<svg width="24" height="32" viewBox="0 0 24 32" fill="none" xmlns="http://www.w3.org/2000/svg">
<path d="M11.9995 18.3822V5.4035C11.9952 4.52906 12.2043 3.66679 12.6085 2.8914C13.0128 2.11601 13.6 1.4509 14.3194 0.953726C15.0388 0.45655 15.8685 0.142306 16.7367 0.0382263C17.605 -0.0658528 18.4855 0.0433743 19.3019 0.356441C20.1184 0.669508 20.8462 1.17697 21.4223 1.83484C21.9984 2.49271 22.4053 3.28115 22.6079 4.13181C22.8104 4.98247 22.8025 5.8697 22.5847 6.71659C22.3669 7.56349 21.9459 8.34449 21.3581 8.99192H21.3862L11.9995 18.3822Z" fill="#AC1E2D"/>
<path d="M0 19.4767C0 12.8119 5.26162 7.92566 12 7.92566C18.7384 7.92566 24 12.8049 24 19.4767C24 26.1484 18.7384 31.0277 12 31.0277C5.26162 31.0277 0 26.1519 0 19.4767ZM17.3914 19.4767C17.3914 15.9479 15.3359 13.3802 12 13.3802C8.66413 13.3802 6.60859 15.9479 6.60859 19.4767C6.60859 23.0055 8.66413 25.5731 12 25.5731C15.3359 25.5731 17.4054 23.0055 17.4054 19.4767H17.3914Z" fill="white"/>
<path d="M12.0002 18.3822V5.4035C12.0002 3.97733 11.4337 2.60957 10.4253 1.60112C9.4168 0.592666 8.04904 0.026123 6.62287 0.026123C5.1967 0.026123 3.82895 0.592666 2.8205 1.60112C1.81205 2.60957 1.2455 3.97733 1.2455 5.4035C1.24853 6.73291 1.74907 8.01304 2.6486 8.99192H2.61703L12.0002 18.3822Z" fill="#EF3743"/>
</svg>
