<svg xmlns="http://www.w3.org/2000/svg" viewBox="0 0 1083.54 115.01"><defs><style>.cls-1{fill:#fafafa;}</style></defs><g id="Layer_2" data-name="Layer 2"><g id="Layer_1-2" data-name="Layer 1"><path class="cls-1" d="M24.1,49.05H37.36q7.55,0,11.32-3.29t3.78-9.25a11.52,11.52,0,0,0-3.78-9.07Q44.92,24.1,37.36,24.1H24.1ZM52.58,90.31,37.13,67.67h-13V90.31H0V5.11H38.82Q50.51,5.11,59,8.88a29,29,0,0,1,13.08,10.9,30.32,30.32,0,0,1,4.57,16.73q0,9.85-4.57,16.8A28.76,28.76,0,0,1,60,63.5L78.38,90.31Zm98.88-51.42A32.19,32.19,0,0,0,138.68,27.2,38.25,38.25,0,0,0,121,23.12a39,39,0,0,0-18.69,4.39,32.87,32.87,0,0,0-12.9,12.11,33.48,33.48,0,0,0-4.68,17.7,32.41,32.41,0,0,0,4.8,17.47A33.41,33.41,0,0,0,103,87q8.7,4.44,20.51,4.44a44.18,44.18,0,0,0,16.31-2.74,30.25,30.25,0,0,0,11.56-7.85L139.35,68a25.27,25.27,0,0,1-6.81,4.32,22,22,0,0,1-8.4,1.4,19.93,19.93,0,0,1-9-1.88,13.36,13.36,0,0,1-5.78-5.42A14.88,14.88,0,0,1,108,63.17h47.91c.08-.9.16-1.87.24-2.92s.12-2,.12-2.8Q156.27,46.49,151.46,38.89ZM113.79,41.5a14.69,14.69,0,0,1,7.43-1.82,13.76,13.76,0,0,1,7.18,1.82,12.93,12.93,0,0,1,4.81,5.17A14.41,14.41,0,0,1,134.63,51h-27A16,16,0,0,1,109,46.67,11.83,11.83,0,0,1,113.79,41.5ZM218.16,30.55q-8.83-7.43-24.89-7.43a61.13,61.13,0,0,0-15.64,2.07,46,46,0,0,0-13.45,5.72l7.67,15.58a30,30,0,0,1,8.34-4,31.36,31.36,0,0,1,9.67-1.59q7.3,0,10.65,3a10.35,10.35,0,0,1,3.31,7.48H190.71q-10.1,0-16.61,2.37t-9.61,6.88a18.19,18.19,0,0,0-3.11,10.59,19,19,0,0,0,2.86,10.22,19.61,19.61,0,0,0,8.4,7.31A30.44,30.44,0,0,0,186,91.4q8.64,0,13.93-3.47a16,16,0,0,0,5.54-6.18v8.56H227V53.67Q227,38,218.16,30.55ZM199.42,74.91a13.21,13.21,0,0,1-7,1.89,9.71,9.71,0,0,1-6.33-1.89,5.94,5.94,0,0,1-2.31-4.81A5.72,5.72,0,0,1,186,65.24q2.25-1.71,7.85-1.71h10v5.6A10.51,10.51,0,0,1,199.42,74.91ZM289.42,0V30a20,20,0,0,0-3.9-3.16,26.6,26.6,0,0,0-14.36-3.72,32.56,32.56,0,0,0-16.31,4.2,30.63,30.63,0,0,0-11.74,11.81q-4.34,7.6-4.32,18.19t4.32,18.08a30.6,30.6,0,0,0,11.74,11.8,32.56,32.56,0,0,0,16.31,4.2q8.88,0,14.79-3.65a19.28,19.28,0,0,0,4.56-4v6.51h22V0ZM288,65.78A12.81,12.81,0,0,1,283,71.2,13.54,13.54,0,0,1,276,73a13.74,13.74,0,0,1-7.12-1.82A12.83,12.83,0,0,1,264,65.78a18.39,18.39,0,0,1-1.83-8.46A18.19,18.19,0,0,1,264,48.68a13.11,13.11,0,0,1,4.93-5.23A13.75,13.75,0,0,1,276,41.62a13.54,13.54,0,0,1,7,1.83A13.09,13.09,0,0,1,288,48.68a18.19,18.19,0,0,1,1.83,8.64A18.39,18.39,0,0,1,288,65.78ZM396.76,24.22,368.4,93a45.72,45.72,0,0,1-7.91,13.33,24.4,24.4,0,0,1-9.8,6.76,36.13,36.13,0,0,1-22.45.3,26.94,26.94,0,0,1-8.76-4.32L327.63,93a16.75,16.75,0,0,0,4.81,2.74,15.22,15.22,0,0,0,5.41,1,9.41,9.41,0,0,0,6-1.71,11.81,11.81,0,0,0,3-3.93l-28.25-66.9h23.74l16.19,40.4,16.3-40.4ZM408.81,91.4A13.77,13.77,0,0,1,399,87.57a13.23,13.23,0,0,1-4-10,12.71,12.71,0,0,1,4-9.8,15,15,0,0,1,19.72,0,12.71,12.71,0,0,1,4,9.8,13.23,13.23,0,0,1-4,10A13.77,13.77,0,0,1,408.81,91.4ZM500,92a77.1,77.1,0,0,1-20.27-2.62,52.55,52.55,0,0,1-15.64-6.63L472,64.87a56,56,0,0,0,13.21,6,48.88,48.88,0,0,0,14.91,2.38,31,31,0,0,0,8.09-.85A9,9,0,0,0,512.56,70a5.5,5.5,0,0,0,1.4-3.77,5,5,0,0,0-2.68-4.44,26.34,26.34,0,0,0-7-2.8c-2.89-.77-6-1.5-9.38-2.19A96.37,96.37,0,0,1,484.63,54a39.38,39.38,0,0,1-9.49-4.51,21.4,21.4,0,0,1-6.88-7.3,22.28,22.28,0,0,1-2.62-11.32,24.25,24.25,0,0,1,4.14-13.75q4.14-6.21,12.54-10t20.93-3.77a72.78,72.78,0,0,1,16.49,1.88A48.63,48.63,0,0,1,534,11l-7.3,17.77a52.3,52.3,0,0,0-12-5,45.19,45.19,0,0,0-11.56-1.58,24.18,24.18,0,0,0-8,1.1,9.47,9.47,0,0,0-4.38,2.8,5.74,5.74,0,0,0-1.34,3.65,5.1,5.1,0,0,0,2.67,4.56A24.23,24.23,0,0,0,499,36.94q4.26,1,9.43,2.13a102.82,102.82,0,0,1,10.29,2.74,40.45,40.45,0,0,1,9.43,4.38,21.56,21.56,0,0,1,7,7.18,21.28,21.28,0,0,1,2.68,11.13,24.1,24.1,0,0,1-4.2,13.7q-4.2,6.27-12.6,10T500,92ZM610.29,38.89A32.19,32.19,0,0,0,597.51,27.2a38.29,38.29,0,0,0-17.71-4.08,39,39,0,0,0-18.68,4.39,32.8,32.8,0,0,0-12.9,12.11,33.48,33.48,0,0,0-4.68,17.7,32.41,32.41,0,0,0,4.8,17.47A33.41,33.41,0,0,0,561.85,87q8.7,4.44,20.51,4.44a44.22,44.22,0,0,0,16.31-2.74,30.25,30.25,0,0,0,11.56-7.85L598.18,68a25.27,25.27,0,0,1-6.81,4.32,22.09,22.09,0,0,1-8.4,1.4,19.93,19.93,0,0,1-9-1.88,13.36,13.36,0,0,1-5.78-5.42,14.88,14.88,0,0,1-1.35-3.28h47.9c.08-.9.17-1.87.25-2.92s.12-2,.12-2.8Q615.1,46.49,610.29,38.89ZM572.62,41.5a14.69,14.69,0,0,1,7.43-1.82,13.76,13.76,0,0,1,7.18,1.82A12.93,12.93,0,0,1,592,46.67,14.41,14.41,0,0,1,593.46,51h-27a16,16,0,0,1,1.34-4.33A11.83,11.83,0,0,1,572.62,41.5Zm98.83,46a21.77,21.77,0,0,1-7.36,3,41.37,41.37,0,0,1-8.83.91q-12.66,0-19.71-6.27t-7.06-18.92V44.06h-9.62V26.78h9.62V9.49h23.12V26.78H666.7V44.06H651.61V65.84a7.88,7.88,0,0,0,1.89,5.72,6.69,6.69,0,0,0,5,2,12.25,12.25,0,0,0,7.06-2.07Zm19.71,3.89a13.73,13.73,0,0,1-9.85-3.83,13.24,13.24,0,0,1-4-10,12.71,12.71,0,0,1,4-9.8,14.94,14.94,0,0,1,19.71,0,12.71,12.71,0,0,1,4,9.8,13.24,13.24,0,0,1-4,10A13.76,13.76,0,0,1,691.16,91.4Zm61.34-1.09V5.11h40.29q14,0,24.7,5.24a40.21,40.21,0,0,1,16.74,14.72q6,9.49,6,22.52t-6,22.7a40.07,40.07,0,0,1-16.74,14.78q-10.71,5.24-24.7,5.24Zm24.1-19.23h15a27.58,27.58,0,0,0,12.84-2.8,20.38,20.38,0,0,0,8.46-8.1,24.57,24.57,0,0,0,3-12.47,24.45,24.45,0,0,0-3-12.6,20.64,20.64,0,0,0-8.46-8,27.7,27.7,0,0,0-12.84-2.8h-15ZM904.82,30.55q-8.84-7.43-24.89-7.43a61.07,61.07,0,0,0-15.64,2.07,45.91,45.91,0,0,0-13.45,5.72l7.67,15.58a30,30,0,0,1,8.33-4,31.43,31.43,0,0,1,9.68-1.59q7.31,0,10.65,3a10.39,10.39,0,0,1,3.31,7.48H877.37q-10.1,0-16.61,2.37t-9.62,6.88A18.18,18.18,0,0,0,848,71.2a19,19,0,0,0,2.86,10.22,19.56,19.56,0,0,0,8.4,7.31,30.42,30.42,0,0,0,13.32,2.67q8.64,0,13.94-3.47a16.12,16.12,0,0,0,5.54-6.18v8.56h21.54V53.67Q913.64,38,904.82,30.55ZM886.07,74.91a13.19,13.19,0,0,1-7,1.89,9.7,9.7,0,0,1-6.32-1.89,5.92,5.92,0,0,1-2.32-4.81,5.7,5.7,0,0,1,2.26-4.86q2.25-1.71,7.84-1.71h10v5.6A10.48,10.48,0,0,1,886.07,74.91Zm87.81,12.6a21.77,21.77,0,0,1-7.36,3,41.34,41.34,0,0,1-8.82.91Q945,91.4,938,85.13t-7.06-18.92V44.06h-9.61V26.78h9.61V9.49h23.13V26.78h15.09V44.06H954.05V65.84c0,2.52.62,4.43,1.88,5.72a6.7,6.7,0,0,0,5.05,2A12.25,12.25,0,0,0,968,71.44Zm69.44-48.62a32.32,32.32,0,0,0-12.78-11.69,38.32,38.32,0,0,0-17.71-4.08,39,39,0,0,0-18.68,4.39,32.73,32.73,0,0,0-12.9,12.11,33.39,33.39,0,0,0-4.69,17.7,32.33,32.33,0,0,0,4.81,17.47A33.35,33.35,0,0,0,994.88,87q8.7,4.44,20.51,4.44a44.16,44.16,0,0,0,16.3-2.74,30.28,30.28,0,0,0,11.57-7.85l-12-12.78a25.31,25.31,0,0,1-6.82,4.32,22,22,0,0,1-8.4,1.4,19.86,19.86,0,0,1-9-1.88,13.3,13.3,0,0,1-5.78-5.42,14.41,14.41,0,0,1-1.35-3.28h47.9c.08-.9.16-1.87.24-2.92s.12-2,.12-2.8Q1048.12,46.49,1043.32,38.89Zm-37.67,2.61a14.65,14.65,0,0,1,7.42-1.82,13.73,13.73,0,0,1,7.18,1.82,12.93,12.93,0,0,1,4.81,5.17,13.87,13.87,0,0,1,1.42,4.33h-27a15.63,15.63,0,0,1,1.33-4.33A11.91,11.91,0,0,1,1005.65,41.5Zm54.89,17.77-4.63-54.16h27.63l-4.62,54.16Zm9.25,32.13a13.71,13.71,0,0,1-10-3.77,12.1,12.1,0,0,1-3.9-9,11.64,11.64,0,0,1,3.9-8.94,14.15,14.15,0,0,1,10-3.59,14,14,0,0,1,9.92,3.59,11.75,11.75,0,0,1,3.83,8.94,12.21,12.21,0,0,1-3.83,9A13.54,13.54,0,0,1,1069.79,91.4Z"/></g></g></svg>