<svg xmlns="http://www.w3.org/2000/svg" viewBox="0 0 1085.15 116.56"><defs><style>.cls-1{fill:none;stroke:#fafafa;stroke-width:1.54px;}</style></defs><g id="Layer_2" data-name="Layer 2"><g id="Layer_1-2" data-name="Layer 1"><path class="cls-1" d="M24.87,49.82H38.14q7.55,0,11.31-3.29t3.78-9.25a11.48,11.48,0,0,0-3.78-9.06q-3.77-3.34-11.31-3.35H24.87ZM53.35,91.08,37.9,68.44h-13V91.08H.77V5.88H39.6q11.68,0,20.2,3.78A28.93,28.93,0,0,1,72.88,20.55a30.27,30.27,0,0,1,4.57,16.73q0,9.87-4.57,16.8a28.72,28.72,0,0,1-12.12,10.2l18.39,26.8Zm98.88-51.42A32.23,32.23,0,0,0,139.46,28a38.44,38.44,0,0,0-17.71-4.07,39.12,39.12,0,0,0-18.69,4.38,32.94,32.94,0,0,0-12.9,12.11A33.49,33.49,0,0,0,85.48,58.1a32.32,32.32,0,0,0,4.81,17.46A33.28,33.28,0,0,0,103.8,87.73q8.7,4.44,20.5,4.44a44.4,44.4,0,0,0,16.31-2.73,30.3,30.3,0,0,0,11.56-7.86l-12-12.77a25.77,25.77,0,0,1-6.81,4.32,22.21,22.21,0,0,1-8.4,1.4,19.86,19.86,0,0,1-9-1.89,13.33,13.33,0,0,1-5.79-5.42,14.39,14.39,0,0,1-1.34-3.28h47.9c.08-.89.16-1.87.24-2.92s.12-2,.12-2.8Q157,47.26,152.23,39.66Zm-37.66,2.61A14.65,14.65,0,0,1,122,40.45a13.76,13.76,0,0,1,7.18,1.82A13,13,0,0,1,134,47.45a14.35,14.35,0,0,1,1.42,4.32h-27a15.81,15.81,0,0,1,1.34-4.32A11.88,11.88,0,0,1,114.57,42.27Zm104.36-11Q210.11,23.9,194,23.9A61.55,61.55,0,0,0,178.4,26,46.29,46.29,0,0,0,165,31.68l7.67,15.58a30,30,0,0,1,8.34-4,31.36,31.36,0,0,1,9.67-1.59q7.31,0,10.65,3a10.31,10.31,0,0,1,3.31,7.48H191.48q-10.09,0-16.61,2.37t-9.61,6.88A18.19,18.19,0,0,0,162.15,72,19.1,19.1,0,0,0,165,82.19a19.61,19.61,0,0,0,8.4,7.31,30.44,30.44,0,0,0,13.33,2.67q8.64,0,13.93-3.46a16.14,16.14,0,0,0,5.54-6.19v8.56h21.54V54.44Q227.75,38.75,218.93,31.32ZM200.19,75.68a13.21,13.21,0,0,1-7,1.89,9.71,9.71,0,0,1-6.33-1.89,5.94,5.94,0,0,1-2.31-4.81A5.73,5.73,0,0,1,186.8,66q2.25-1.71,7.85-1.71h10v5.6A10.42,10.42,0,0,1,200.19,75.68Zm90-74.91v30a20.37,20.37,0,0,0-3.9-3.16,26.57,26.57,0,0,0-14.36-3.71,32.66,32.66,0,0,0-16.31,4.19A30.7,30.7,0,0,0,243.88,39.9q-4.32,7.6-4.32,18.2a36,36,0,0,0,4.32,18.07A30.6,30.6,0,0,0,255.62,88a32.56,32.56,0,0,0,16.31,4.2q8.88,0,14.79-3.65a19.28,19.28,0,0,0,4.56-4v6.51h22V.77Zm-1.46,65.78A12.83,12.83,0,0,1,283.8,72a13.54,13.54,0,0,1-7,1.83A13.75,13.75,0,0,1,269.68,72a12.83,12.83,0,0,1-4.93-5.42,18.37,18.37,0,0,1-1.83-8.45,18.21,18.21,0,0,1,1.83-8.65,13.11,13.11,0,0,1,4.93-5.23,13.74,13.74,0,0,1,7.12-1.82,13.54,13.54,0,0,1,7,1.82,13.11,13.11,0,0,1,4.93,5.23,18.33,18.33,0,0,1,1.82,8.65A18.5,18.5,0,0,1,288.73,66.55ZM397.53,25,369.17,93.76a45.65,45.65,0,0,1-7.91,13.32,24.44,24.44,0,0,1-9.79,6.76,36.16,36.16,0,0,1-22.46.3,26.75,26.75,0,0,1-8.76-4.32l8.15-16.06a17,17,0,0,0,4.81,2.73,15.27,15.27,0,0,0,5.42,1,9.4,9.4,0,0,0,6-1.71,11.7,11.7,0,0,0,3-3.93L319.4,25h23.73l16.19,40.4L375.62,25Zm12.05,67.18a13.73,13.73,0,0,1-9.86-3.83,13.27,13.27,0,0,1-4-10,12.74,12.74,0,0,1,4-9.8,15,15,0,0,1,19.72,0,12.71,12.71,0,0,1,4,9.8,13.24,13.24,0,0,1-4,10A13.72,13.72,0,0,1,409.58,92.17Zm91.16.61a77.52,77.52,0,0,1-20.27-2.61,52.81,52.81,0,0,1-15.64-6.64l7.91-17.89a56.39,56.39,0,0,0,13.21,6A49.17,49.17,0,0,0,500.86,74a30.5,30.5,0,0,0,8.09-.85,9,9,0,0,0,4.38-2.44,5.5,5.5,0,0,0,1.4-3.77,5,5,0,0,0-2.67-4.44,26.57,26.57,0,0,0-7-2.8c-2.88-.77-6-1.5-9.37-2.19a93.62,93.62,0,0,1-10.29-2.74,39.74,39.74,0,0,1-9.49-4.5A21.62,21.62,0,0,1,469,43a22.28,22.28,0,0,1-2.61-11.32,24.26,24.26,0,0,1,4.13-13.75q4.14-6.21,12.54-10T504,4.18a72.22,72.22,0,0,1,16.49,1.89,48.34,48.34,0,0,1,14.3,5.65l-7.3,17.77a52.3,52.3,0,0,0-12-5,45.19,45.19,0,0,0-11.56-1.58,24.22,24.22,0,0,0-8,1.1,9.47,9.47,0,0,0-4.38,2.8,5.74,5.74,0,0,0-1.34,3.65A5.08,5.08,0,0,0,492.83,35a24,24,0,0,0,6.93,2.68q4.26,1,9.44,2.13a103.36,103.36,0,0,1,10.28,2.74A40.45,40.45,0,0,1,528.91,47a21.56,21.56,0,0,1,7,7.18,21.3,21.3,0,0,1,2.68,11.14A24.09,24.09,0,0,1,534.39,79q-4.2,6.27-12.6,10T500.74,92.78ZM611.06,39.66A32.19,32.19,0,0,0,598.28,28a38.37,38.37,0,0,0-17.7-4.07,39.12,39.12,0,0,0-18.69,4.38A32.87,32.87,0,0,0,549,40.39a33.49,33.49,0,0,0-4.68,17.71,32.4,32.4,0,0,0,4.8,17.46,33.41,33.41,0,0,0,13.51,12.17q8.7,4.44,20.51,4.44a44.43,44.43,0,0,0,16.31-2.73A30.38,30.38,0,0,0,611,81.58L599,68.81a25.77,25.77,0,0,1-6.81,4.32,22.25,22.25,0,0,1-8.4,1.4,19.93,19.93,0,0,1-9-1.89A13.36,13.36,0,0,1,569,67.22a14.88,14.88,0,0,1-1.35-3.28h47.91c.08-.89.16-1.87.24-2.92s.12-2,.12-2.8Q615.87,47.26,611.06,39.66Zm-37.67,2.61a14.69,14.69,0,0,1,7.43-1.82A13.76,13.76,0,0,1,588,42.27a13,13,0,0,1,4.81,5.18,14.35,14.35,0,0,1,1.42,4.32h-27a15.81,15.81,0,0,1,1.34-4.32A11.86,11.86,0,0,1,573.39,42.27Zm98.83,46a21.77,21.77,0,0,1-7.36,3,41.37,41.37,0,0,1-8.83.91q-12.66,0-19.71-6.26T629.26,67V44.83h-9.62V27.55h9.62V10.26h23.12V27.55h15.09V44.83H652.38V66.62a7.87,7.87,0,0,0,1.89,5.71,6.7,6.7,0,0,0,5.05,2,12.25,12.25,0,0,0,7.06-2.07Zm19.71,3.89a13.69,13.69,0,0,1-9.85-3.83,13.24,13.24,0,0,1-4-10,12.71,12.71,0,0,1,4-9.8,14.94,14.94,0,0,1,19.71,0,12.71,12.71,0,0,1,4,9.8,13.24,13.24,0,0,1-4,10A13.7,13.7,0,0,1,691.93,92.17Zm61.34-1.09V5.88h40.29q14,0,24.7,5.24A40.28,40.28,0,0,1,835,25.84q6,9.5,6,22.52t-6,22.7a40.16,40.16,0,0,1-16.74,14.79q-10.71,5.22-24.7,5.23Zm24.1-19.23h15a27.58,27.58,0,0,0,12.84-2.8A20.36,20.36,0,0,0,813.64,61a24.6,24.6,0,0,0,3-12.48,24.45,24.45,0,0,0-3-12.6,20.64,20.64,0,0,0-8.46-8,27.7,27.7,0,0,0-12.84-2.8h-15ZM905.59,31.32q-8.83-7.42-24.89-7.42A61.5,61.5,0,0,0,865.06,26a46.29,46.29,0,0,0-13.45,5.72l7.67,15.58a30,30,0,0,1,8.33-4,31.47,31.47,0,0,1,9.68-1.59q7.31,0,10.65,3a10.35,10.35,0,0,1,3.31,7.48H878.14q-10.1,0-16.61,2.37t-9.62,6.88A18.25,18.25,0,0,0,848.81,72a19,19,0,0,0,2.86,10.22,19.61,19.61,0,0,0,8.4,7.31,30.44,30.44,0,0,0,13.33,2.67q8.64,0,13.93-3.46a16.22,16.22,0,0,0,5.54-6.19v8.56h21.54V54.44Q914.41,38.75,905.59,31.32ZM886.84,75.68a13.18,13.18,0,0,1-7,1.89,9.71,9.71,0,0,1-6.33-1.89,5.92,5.92,0,0,1-2.32-4.81A5.71,5.71,0,0,1,873.46,66c1.5-1.14,4.11-1.71,7.85-1.71h10v5.6A10.48,10.48,0,0,1,886.84,75.68Zm87.82,12.6a21.9,21.9,0,0,1-7.37,3,41.34,41.34,0,0,1-8.82.91q-12.66,0-19.72-6.26T931.69,67V44.83h-9.61V27.55h9.61V10.26h23.13V27.55h15.09V44.83H954.82V66.62a7.86,7.86,0,0,0,1.88,5.71,6.7,6.7,0,0,0,5,2,12.25,12.25,0,0,0,7.06-2.07Zm69.43-48.62A32.32,32.32,0,0,0,1031.31,28a38.44,38.44,0,0,0-17.71-4.07,39.08,39.08,0,0,0-18.68,4.38A32.8,32.8,0,0,0,982,40.39a33.4,33.4,0,0,0-4.69,17.71,32.32,32.32,0,0,0,4.81,17.46,33.35,33.35,0,0,0,13.51,12.17q8.7,4.44,20.51,4.44a44.47,44.47,0,0,0,16.31-2.73A30.46,30.46,0,0,0,1044,81.58l-12-12.77a25.81,25.81,0,0,1-6.82,4.32,22.21,22.21,0,0,1-8.4,1.4,19.89,19.89,0,0,1-9-1.89,13.3,13.3,0,0,1-5.78-5.42,14.41,14.41,0,0,1-1.35-3.28h47.9c.08-.89.16-1.87.24-2.92s.13-2,.13-2.8Q1048.9,47.26,1044.09,39.66Zm-37.67,2.61a14.65,14.65,0,0,1,7.42-1.82,13.73,13.73,0,0,1,7.18,1.82,12.89,12.89,0,0,1,4.81,5.18,13.81,13.81,0,0,1,1.42,4.32h-27a15.46,15.46,0,0,1,1.33-4.32A11.94,11.94,0,0,1,1006.42,42.27ZM1061.31,60l-4.63-54.16h27.63L1079.69,60Zm9.25,32.13a13.73,13.73,0,0,1-10-3.77,12.1,12.1,0,0,1-3.9-9,11.64,11.64,0,0,1,3.9-8.94,14.16,14.16,0,0,1,10-3.59,14,14,0,0,1,9.92,3.59,11.75,11.75,0,0,1,3.83,8.94,12.21,12.21,0,0,1-3.83,9A13.52,13.52,0,0,1,1070.56,92.17Z"/></g></g></svg>